<svg width="16" height="16" viewBox="0 0 16 16" fill="none" xmlns="http://www.w3.org/2000/svg">
<rect width="16" height="16" fill="#EF3C46"/>
<path d="M3.56 12.33C3.78 12.33 3.97333 12.3267 4.14 12.32C4.31333 12.3067 4.45667 12.2867 4.57 12.26V10.71C4.50333 10.6767 4.39333 10.65 4.24 10.63C4.09333 10.6033 3.91333 10.59 3.7 10.59C3.56 10.59 3.41 10.6 3.25 10.62C3.09667 10.64 2.95333 10.6833 2.82 10.75C2.69333 10.81 2.58667 10.8967 2.5 11.01C2.41333 11.1167 2.37 11.26 2.37 11.44C2.37 11.7733 2.47667 12.0067 2.69 12.14C2.90333 12.2667 3.19333 12.33 3.56 12.33ZM3.48 7.67C3.85333 7.67 4.16667 7.72 4.42 7.82C4.68 7.91333 4.88667 8.05 5.04 8.23C5.2 8.40333 5.31333 8.61333 5.38 8.86C5.44667 9.1 5.48 9.36667 5.48 9.66V12.91C5.4 12.9233 5.28667 12.9433 5.14 12.97C5 12.99 4.84 13.01 4.66 13.03C4.48 13.05 4.28333 13.0667 4.07 13.08C3.86333 13.1 3.65667 13.11 3.45 13.11C3.15667 13.11 2.88667 13.08 2.64 13.02C2.39333 12.96 2.18 12.8667 2 12.74C1.82 12.6067 1.68 12.4333 1.58 12.22C1.48 12.0067 1.43 11.75 1.43 11.45C1.43 11.1633 1.48667 10.9167 1.6 10.71C1.72 10.5033 1.88 10.3367 2.08 10.21C2.28 10.0833 2.51333 9.99 2.78 9.93C3.04667 9.87 3.32667 9.84 3.62 9.84C3.71333 9.84 3.81 9.84667 3.91 9.86C4.01 9.86667 4.10333 9.88 4.19 9.9C4.28333 9.91333 4.36333 9.92667 4.43 9.94C4.49667 9.95333 4.54333 9.96333 4.57 9.97V9.71C4.57 9.55667 4.55333 9.40667 4.52 9.26C4.48667 9.10667 4.42667 8.97333 4.34 8.86C4.25333 8.74 4.13333 8.64667 3.98 8.58C3.83333 8.50667 3.64 8.47 3.4 8.47C3.09333 8.47 2.82333 8.49333 2.59 8.54C2.36333 8.58 2.19333 8.62333 2.08 8.67L1.97 7.9C2.09 7.84667 2.29 7.79667 2.57 7.75C2.85 7.69667 3.15333 7.67 3.48 7.67ZM8.12461 12.46C8.12461 12.64 8.06461 12.7967 7.94461 12.93C7.82461 13.0633 7.66128 13.13 7.45461 13.13C7.24794 13.13 7.08461 13.0633 6.96461 12.93C6.84461 12.7967 6.78461 12.64 6.78461 12.46C6.78461 12.28 6.84461 12.1233 6.96461 11.99C7.08461 11.8567 7.24794 11.79 7.45461 11.79C7.66128 11.79 7.82461 11.8567 7.94461 11.99C8.06461 12.1233 8.12461 12.28 8.12461 12.46ZM10.3555 7.8H12.3255V8.58H10.3555V10.98C10.3555 11.24 10.3755 11.4567 10.4155 11.63C10.4555 11.7967 10.5155 11.93 10.5955 12.03C10.6755 12.1233 10.7755 12.19 10.8955 12.23C11.0155 12.27 11.1555 12.29 11.3155 12.29C11.5955 12.29 11.8189 12.26 11.9855 12.2C12.1589 12.1333 12.2789 12.0867 12.3455 12.06L12.5255 12.83C12.4322 12.8767 12.2689 12.9333 12.0355 13C11.8022 13.0733 11.5355 13.11 11.2355 13.11C10.8822 13.11 10.5889 13.0667 10.3555 12.98C10.1289 12.8867 9.94555 12.75 9.80555 12.57C9.66555 12.39 9.56555 12.17 9.50555 11.91C9.45221 11.6433 9.42555 11.3367 9.42555 10.99V6.35L10.3555 6.19V7.8ZM12.659 14.87C12.579 14.87 12.4757 14.86 12.349 14.84C12.2223 14.82 12.1157 14.7933 12.029 14.76L12.149 14C12.2157 14.02 12.2923 14.0367 12.379 14.05C12.4657 14.0633 12.5457 14.07 12.619 14.07C12.939 14.07 13.1657 13.97 13.299 13.77C13.439 13.5767 13.509 13.29 13.509 12.91V7.8H14.439V12.9C14.439 13.5667 14.2857 14.06 13.979 14.38C13.679 14.7067 13.239 14.87 12.659 14.87ZM13.969 6.86C13.8023 6.86 13.659 6.80667 13.539 6.7C13.4257 6.58667 13.369 6.43667 13.369 6.25C13.369 6.06333 13.4257 5.91667 13.539 5.81C13.659 5.69667 13.8023 5.64 13.969 5.64C14.1357 5.64 14.2757 5.69667 14.389 5.81C14.509 5.91667 14.569 6.06333 14.569 6.25C14.569 6.43667 14.509 6.58667 14.389 6.7C14.2757 6.80667 14.1357 6.86 13.969 6.86Z" fill="white"/>
</svg>
