<svg width="128" height="128" viewBox="0 0 128 128" fill="none" xmlns="http://www.w3.org/2000/svg">
<rect width="128" height="128" fill="#EF3C46"/>
<path d="M28.764 96.264C29.996 96.264 31.172 96.236 32.292 96.18C33.412 96.124 34.308 96.04 34.98 95.928V86.436C34.476 86.324 33.72 86.212 32.712 86.1C31.704 85.988 30.78 85.932 29.94 85.932C28.764 85.932 27.644 86.016 26.58 86.184C25.572 86.296 24.676 86.548 23.892 86.94C23.108 87.332 22.492 87.864 22.044 88.536C21.596 89.208 21.372 90.048 21.372 91.056C21.372 93.016 22.016 94.388 23.304 95.172C24.648 95.9 26.468 96.264 28.764 96.264ZM27.756 59.64C31.452 59.64 34.532 60.06 36.996 60.9C39.46 61.74 41.42 62.944 42.876 64.512C44.388 66.08 45.452 67.984 46.068 70.224C46.684 72.464 46.992 74.956 46.992 77.7V103.74C45.2 104.132 42.708 104.58 39.516 105.084C36.324 105.644 32.46 105.924 27.924 105.924C25.068 105.924 22.464 105.672 20.112 105.168C17.816 104.664 15.828 103.852 14.148 102.732C12.468 101.556 11.18 100.044 10.284 98.196C9.388 96.348 8.94 94.08 8.94 91.392C8.94 88.816 9.444 86.632 10.452 84.84C11.516 83.048 12.916 81.62 14.652 80.556C16.388 79.492 18.376 78.736 20.616 78.288C22.856 77.784 25.18 77.532 27.588 77.532C29.212 77.532 30.64 77.616 31.872 77.784C33.16 77.896 34.196 78.064 34.98 78.288V77.112C34.98 74.984 34.336 73.276 33.048 71.988C31.76 70.7 29.52 70.056 26.328 70.056C24.2 70.056 22.1 70.224 20.028 70.56C17.956 70.84 16.164 71.26 14.652 71.82L13.056 61.74C13.784 61.516 14.68 61.292 15.744 61.068C16.864 60.788 18.068 60.564 19.356 60.396C20.644 60.172 21.988 60.004 23.388 59.892C24.844 59.724 26.3 59.64 27.756 59.64ZM67.2137 98.364C67.2137 100.884 66.4017 102.816 64.7777 104.16C63.2097 105.448 61.4177 106.092 59.4017 106.092C57.3857 106.092 55.5657 105.448 53.9417 104.16C52.3737 102.816 51.5897 100.884 51.5897 98.364C51.5897 95.844 52.3737 93.94 53.9417 92.652C55.5657 91.308 57.3857 90.636 59.4017 90.636C61.4177 90.636 63.2097 91.308 64.7777 92.652C66.4017 93.94 67.2137 95.844 67.2137 98.364ZM71.8416 49.812L84.3576 47.796V60.816H99.3936V71.232H84.3576V86.772C84.3576 89.404 84.8056 91.504 85.7016 93.072C86.6536 94.64 88.5296 95.424 91.3296 95.424C92.6736 95.424 94.0456 95.312 95.4456 95.088C96.9016 94.808 98.2176 94.444 99.3936 93.996L101.158 103.74C99.6456 104.356 97.9656 104.888 96.1176 105.336C94.2696 105.784 92.0016 106.008 89.3136 106.008C85.8976 106.008 83.0696 105.56 80.8296 104.664C78.5896 103.712 76.7976 102.424 75.4536 100.8C74.1096 99.12 73.1576 97.104 72.5976 94.752C72.0936 92.4 71.8416 89.796 71.8416 86.94V49.812ZM102.11 120.54C101.326 120.54 100.178 120.456 98.6658 120.288C97.0978 120.12 95.6418 119.812 94.2978 119.364L95.9778 109.2C96.8178 109.48 97.6018 109.676 98.3298 109.788C99.0018 109.9 99.8698 109.956 100.934 109.956C102.894 109.956 104.266 109.368 105.05 108.192C105.834 107.016 106.226 105.308 106.226 103.068V60.816H118.742V103.404C118.742 109.228 117.314 113.54 114.458 116.34C111.602 119.14 107.486 120.54 102.11 120.54ZM119.918 48.048C119.918 50.344 119.162 52.164 117.65 53.508C116.194 54.796 114.458 55.44 112.442 55.44C110.426 55.44 108.662 54.796 107.15 53.508C105.694 52.164 104.966 50.344 104.966 48.048C104.966 45.752 105.694 43.96 107.15 42.672C108.662 41.328 110.426 40.656 112.442 40.656C114.458 40.656 116.194 41.328 117.65 42.672C119.162 43.96 119.918 45.752 119.918 48.048Z" fill="white"/>
</svg>
